<?xml version="1.0" standalone="no"?>
<!DOCTYPE svg PUBLIC "-//W3C//DTD SVG 20010904//EN" "http://www.w3.org/TR/2001/REC-SVG-20010904/DTD/svg10.dtd">
<svg xmlns="http://www.w3.org/2000/svg" version="1.0" width="1154.000000pt" height="866.000000pt" viewBox="0 0 1154.000000 866.000000" preserveAspectRatio="xMidYMid meet">
<metadata>
Created by potrace 1.16, written by Peter Selinger 2001-2019
<meta name="Producer" content="Online-Convert"/></metadata>
<g transform="translate(0.000000,866.000000) scale(0.100000,-0.100000)" fill="#000000" stroke="none">
<path d="M3865 5633 c-302 -30 -568 -164 -797 -401 -56 -59 -106 -106 -110 -105 -4 2 -5 -3 -2 -11 3 -7 -11 -30 -30 -51 -19 -20 -35 -40 -34 -44 1 -3 -16 -44 -39 -91 -58 -120 -79 -176 -98 -251 -10 -37 -21 -73 -26 -80 -6 -11 -46 -15 -159 -19 l-152 -5 -29 -33 c-27 -30 -29 -38 -29 -118 0 -50 4 -83 9 -79 5 3 18 -8 27 -25 19 -30 26 -35 37 -24 8 8 199 6 245 -2 29 -6 32 -9 32 -44 0 -100 40 -291 84 -394 9 -21 16 -45 16 -52 0 -8 15 -37 33 -64 17 -27 53 -82 79 -122 26 -41 72 -101 101 -133 30 -33 52 -66 50 -72 -3 -8 4 -13 15 -13 19 0 40 -17 41 -33 0 -14 139 -116 199 -146 23 -12 41 -25 38 -29 -3 -4 5 -9 17 -9 11 -1 33 -11 48 -22 29 -22 95 -48 224 -88 74 -24 98 -26 325 -30 239 -5 248 -4 352 22 231 56 434 171 603 340 87 86 225 266 225 292 0 5 8 20 17 33 38 53 123 295 123 349 0 14 7 48 15 75 8 27 15 84 15 127 0 43 5 90 10 106 20 52 92 148 144 189 58 47 156 100 156 84 0 -5 9 -10 19 -10 11 0 21 -3 24 -7 2 -5 3 -3 1 3 -7 31 16 39 105 39 49 0 92 -2 95 -6 3 -3 6 -19 8 -37 2 -23 7 -32 20 -32 10 0 18 5 18 10 0 6 -7 10 -15 10 -8 0 -15 5 -15 10 0 6 6 10 14 10 8 0 16 4 18 9 2 6 30 -5 63 -22 50 -27 61 -37 66 -65 9 -45 21 -54 13 -11 l-5 34 57 -59 c31 -33 63 -73 71 -90 8 -17 21 -42 28 -56 10 -17 15 -58 15 -134 0 -118 15 -200 62 -341 54 -164 118 -275 245 -432 44 -53 26 -66 -21 -16 -20 21 -36 32 -36 25 0 -7 16 -29 36 -49 28 -28 38 -33 45 -22 6 11 16 6 46 -22 46 -43 148 -121 221 -168 28 -18 52 -38 52 -44 0 -6 3 -7 6 -4 4 4 32 -6 63 -22 92 -46 151 -71 167 -71 30 0 2 -20 -29 -21 -20 -1 -24 -3 -11 -6 11 -2 39 0 62 5 23 6 42 6 42 2 0 -4 6 -7 13 -7 6 1 44 -4 84 -12 50 -9 140 -12 300 -9 214 4 234 6 317 31 50 15 103 34 119 42 17 8 35 15 41 15 6 0 51 23 100 50 49 28 95 50 103 50 7 0 13 5 13 10 0 6 7 10 15 10 8 0 15 -4 15 -10 0 -5 7 -10 15 -10 13 0 14 4 4 22 -10 19 -8 25 16 45 26 23 28 23 40 6 8 -10 17 -14 22 -9 4 5 2 11 -5 13 -10 4 -10 8 0 21 7 8 12 17 10 19 -2 3 23 27 55 55 32 28 60 56 62 61 5 14 91 120 103 128 5 3 33 56 63 117 31 62 58 112 60 112 3 0 10 -12 16 -26 5 -15 12 -24 15 -21 3 3 -1 19 -9 36 -13 26 -13 37 -2 75 8 25 18 53 24 64 12 22 28 109 44 242 l12 95 139 5 138 5 24 30 c47 59 43 174 -8 225 l-30 30 -138 0 c-150 0 -153 1 -165 60 -15 80 -63 210 -101 280 -23 41 -37 77 -32 79 5 2 0 10 -11 18 -12 8 -21 20 -21 28 0 7 -16 29 -36 49 -37 37 -38 61 -1 51 19 -5 20 -5 4 5 -9 6 -22 8 -28 5 -5 -4 -60 43 -121 104 -92 92 -258 221 -284 221 -4 0 -22 11 -40 25 -18 14 -38 25 -43 25 -6 0 -30 9 -54 20 -78 36 -218 70 -349 85 -114 12 -149 12 -285 -1 -186 -18 -306 -50 -449 -122 -134 -68 -220 -131 -341 -248 -92 -90 -102 -98 -113 -81 -6 11 -14 16 -17 13 -3 -3 2 -12 11 -21 21 -21 20 -28 -5 -51 -22 -20 -129 -193 -129 -209 -1 -15 -37 -55 -50 -55 -6 0 -37 17 -68 39 -78 52 -112 69 -211 102 -57 20 -105 29 -145 29 -34 0 -56 -4 -49 -8 12 -8 12 -56 -2 -210 -7 -76 -6 -96 6 -103 9 -5 -13 -9 -61 -9 -41 0 -70 4 -64 8 13 8 11 50 -11 209 -11 79 -2 101 43 106 20 2 -2 4 -49 5 -71 2 -99 -3 -170 -27 -104 -36 -134 -50 -232 -114 -64 -41 -80 -48 -88 -36 -5 8 -9 21 -9 30 0 8 -11 30 -25 49 -14 19 -23 40 -21 46 3 7 -1 15 -8 17 -14 5 -66 92 -66 109 0 5 -16 22 -35 39 -19 17 -35 35 -35 39 0 23 -204 198 -317 273 -145 96 -328 161 -504 176 -182 17 -201 17 -334 4z m464 -139 c175 -48 355 -151 498 -287 111 -106 233 -280 233 -333 0 -22 -4 -25 -27 -22 -21 2 -36 20 -75 83 -28 44 -74 110 -104 147 -131 162 -372 307 -587 355 -76 16 -98 32 -90 63 7 27 35 26 152 -6z m3562 -3 c114 -35 250 -97 333 -153 174 -117 424 -427 384 -475 -23 -28 -45 -13 -91 65 -132 224 -338 389 -597 480 -47 16 -106 32 -132 36 -48 7 -63 24 -53 57 9 27 45 24 156 -10z m-3671 -220 c30 -12 75 -26 100 -32 134 -30 327 -165 443 -309 89 -110 160 -250 170 -335 2 -17 9 -41 14 -55 43 -105 44 -237 2 -408 -59 -243 -179 -424 -381 -575 -161 -121 -338 -177 -554 -177 -139 1 -238 20 -367 73 -113 46 -157 72 -237 142 -143 124 -238 259 -298 425 -63 173 -77 366 -38 503 9 31 23 83 32 115 57 202 268 454 449 536 33 15 80 38 105 49 38 19 62 22 155 21 61 0 82 1 48 3 -71 4 -81 18 -25 32 20 5 46 12 57 15 11 3 76 4 145 2 99 -3 136 -8 180 -25z m3456 18 c32 -6 64 -14 69 -19 6 -4 30 -11 55 -15 25 -4 68 -18 96 -31 28 -13 54 -24 59 -24 22 0 190 -123 258 -189 121 -117 196 -247 256 -444 18 -57 21 -94 21 -231 0 -155 -2 -168 -31 -262 -17 -55 -37 -110 -45 -124 -7 -14 -21 -42 -30 -63 -27 -62 -155 -223 -225 -283 -107 -93 -301 -189 -395 -195 -27 -2 -52 -8 -56 -14 -4 -5 -64 -12 -134 -13 -141 -4 -226 4 -203 19 9 6 -5 9 -42 9 -40 0 -80 9 -135 32 -132 53 -211 105 -325 218 -167 165 -217 262 -268 518 -27 136 -3 406 45 487 6 11 22 49 35 85 33 91 149 242 245 319 41 34 80 58 86 55 7 -4 8 -2 4 5 -9 13 205 121 241 121 13 0 40 7 60 15 85 34 246 45 359 24z"/>
<path d="M3967 4609 c-87 -20 -175 -88 -204 -156 -7 -19 -16 -62 -19 -96 -5 -51 -2 -74 20 -130 14 -37 23 -74 20 -82 -4 -8 -1 -15 5 -15 6 0 11 5 11 11 0 8 4 8 14 -1 8 -6 12 -18 10 -25 -3 -8 -1 -22 5 -32 9 -15 10 -13 5 10 -8 34 8 36 39 5 15 -15 32 -22 50 -20 17 2 29 -2 33 -12 6 -16 32 -14 141 10 52 11 69 21 112 64 28 28 51 56 51 63 0 7 9 41 20 76 l19 65 -21 70 c-31 102 -77 148 -180 181 -43 14 -82 25 -86 24 -4 -1 -24 -5 -45 -10z"/>
<path d="M7510 4611 c-61 -19 -141 -65 -168 -96 -44 -49 -73 -136 -71 -207 1 -32 5 -58 9 -58 3 0 16 -17 28 -39 12 -21 29 -44 37 -51 8 -7 15 -21 15 -32 0 -13 5 -18 13 -15 7 3 24 -4 38 -14 13 -10 36 -19 51 -19 15 0 31 -6 35 -14 7 -13 18 -13 78 -1 80 15 120 29 130 44 3 6 15 11 26 11 10 0 19 7 19 15 0 8 7 15 15 15 8 0 15 7 15 16 0 9 10 32 21 51 34 55 38 155 8 218 -36 77 -103 140 -169 159 -82 23 -103 25 -130 17z"/>
<path d="M6138 3713 c-8 -10 -21 -58 -28 -108 -28 -192 -130 -334 -299 -417 -73 -35 -98 -43 -167 -47 -61 -5 -87 -11 -103 -25 -25 -23 -27 -53 -5 -78 16 -16 16 -18 0 -24 -20 -8 -21 -24 0 -24 8 0 12 -4 9 -10 -4 -6 27 -10 85 -10 58 0 89 4 85 10 -3 6 -42 10 -85 10 -77 0 -111 12 -67 24 33 9 44 7 27 -4 -12 -8 -10 -10 8 -10 13 0 21 4 17 9 -3 6 16 8 45 5 39 -4 52 -1 56 11 4 9 19 15 39 15 18 0 49 7 70 16 22 9 50 13 69 10 27 -5 28 -5 7 4 -22 10 -18 13 59 65 46 30 87 52 91 49 5 -3 17 0 26 6 16 9 15 10 -4 5 -34 -9 -28 13 13 52 29 27 39 31 46 21 8 -10 11 -10 15 0 2 6 9 10 14 6 5 -3 9 -1 9 5 0 16 -18 22 -23 9 -4 -10 -7 -10 -18 -1 -10 11 -9 17 9 36 12 13 22 29 22 36 0 6 11 23 25 37 18 18 23 32 19 49 -9 36 4 50 27 29 17 -16 19 -16 19 -1 0 10 -6 16 -12 14 -19 -3 -22 57 -4 73 11 8 16 30 16 63 0 42 -5 56 -27 79 -31 32 -63 36 -85 11z"/>
</g>
</svg>
