<?xml version="1.0" encoding="UTF-8" standalone="no"?>
<svg
   id="Layer_1"
   data-name="Layer 1"
   width="191.44528"
   height="64.163704"
   viewBox="0 0 191.44528 64.163704"
   version="1.1"
   sodipodi:docname="734f1dcb3dae495621b7f90104f5b9a8.svg"
   xmlns:inkscape="http://www.inkscape.org/namespaces/inkscape"
   xmlns:sodipodi="http://sodipodi.sourceforge.net/DTD/sodipodi-0.dtd"
   xmlns="http://www.w3.org/2000/svg"
   xmlns:svg="http://www.w3.org/2000/svg">
  <sodipodi:namedview
     id="namedview59"
     pagecolor="#ffffff"
     bordercolor="#666666"
     borderopacity="1.0"
     inkscape:pageshadow="2"
     inkscape:pageopacity="0.0"
     inkscape:pagecheckerboard="0" />
  <defs
     id="defs4">
    <style
       id="style2">.cls-1{fill:#ec1d35;}</style>
  </defs>
  <path
     d="m 26.194152,7e-4 c 0.0015,0.6764 0.0042,1.3528 0.0035,2.0291 0,0.1331 -0.0183,0.2662 -0.0207,0.3993 -0.0227,1.2509 -0.0407,2.5009 -0.0662,3.7517 q -0.045,2.213 -0.1,4.4256 -0.052,2.1975 -0.11,4.3949 c -0.0214,0.7783 -0.056,1.5562 -0.08,2.3344 a 2.0228,2.0228 0 0 0 0.0537,0.3227 c 0.3516,-0.4753 0.6492,-0.885 0.9546,-1.2887 a 8.3435,8.3435 0 0 1 2.6686,-2.3669 5.3316,5.3316 0 0 1 2.54,-0.7183 5.7153,5.7153 0 0 1 2.0026,0.2435 4.47,4.47 0 0 1 2.2343,1.7493 6.6457,6.6457 0 0 1 1.1046,3.3455 c 0.0816,1.255 0.065,2.5167 0.0766,3.7757 0.0037,0.4078 -0.0507,0.8159 -0.0588,1.2242 -0.0485,2.4707 -0.0854,4.9416 -0.1382,7.4122 -0.0311,1.4547 -0.0907,2.9088 -0.1256,4.3634 -0.0346,1.4454 -0.0519,2.8912 -0.0827,4.3367 a 5.5608,5.5608 0 0 1 -0.0695,0.7623 c -0.0107,0.0662 -0.1067,0.1413 -0.18,0.1688 a 0.8092,0.8092 0 0 1 -0.2744,0.0143 q -3.249,8e-4 -6.498,0 c -0.4146,0 -0.4151,-0.0011 -0.4093,-0.4025 0.0237,-1.6308 0.04,-3.2618 0.0735,-4.8924 0.0447,-2.1933 0.1035,-4.3863 0.1538,-6.58 0.017,-0.7383 0.0226,-1.477 0.0407,-2.2153 0.0173,-0.7059 0.05,-1.4114 0.0647,-2.1172 a 5.23,5.23 0 0 0 -0.295,-1.8984 1.8392,1.8392 0 0 0 -2.2875,-1.1267 2.2656,2.2656 0 0 0 -1.5387,2.0041 24.0609,24.0609 0 0 0 -0.2137,2.9381 c -0.041,1.23 -0.02,2.4629 -0.0458,3.694 -0.0478,2.2643 -0.11,4.5283 -0.167,6.7925 q -0.0165,0.661 -0.035,1.3222 c -0.02,0.737 -0.047,1.4739 -0.0584,2.2111 -0.0029,0.1883 -0.0825,0.2613 -0.2544,0.2674 q -0.077,0.0027 -0.1539,0.0026 c -2.2071,0 -4.4142,-0.0026 -6.6212,0.0038 -0.2562,8e-4 -0.3648,-0.0628 -0.358,-0.3471 0.0363,-1.5278 0.0466,-3.0562 0.08,-4.5841 0.0472,-2.1826 0.1071,-4.3649 0.16,-6.5474 q 0.0529,-2.183 0.1019,-4.366 0.0517,-2.2279 0.1037,-4.4559 c 0.0341,-1.4143 0.0728,-2.8285 0.1051,-4.2428 q 0.0513,-2.2452 0.0944,-4.4906 c 0.0145,-0.7076 0.0253,-1.4153 0.041,-2.1228 q 0.0969,-4.381 0.1976,-8.762 c 0.0059,-0.2553 0.0371,-0.51 0.0566,-0.765 z"
     id="path6" />
  <path
     d="m 94.935552,7e-4 c -0.0176,1.1079 -0.0329,2.2158 -0.0537,3.3236 -0.0181,0.9632 -0.0423,1.9262 -0.0642,2.8893 q -0.0489,2.1514 -0.0984,4.3028 c -0.0342,1.4961 -0.0642,2.9923 -0.1042,4.4882 -0.0207,0.7781 -0.06,1.5557 -0.0865,2.3336 a 1.847,1.847 0 0 0 0.0578,0.3205 c 0.3487,-0.4727 0.6443,-0.8829 0.95,-1.2855 a 8.3873,8.3873 0 0 1 2.6679,-2.3683 5.3931,5.3931 0 0 1 2.571098,-0.7218 5.7173,5.7173 0 0 1 1.9718,0.2459 4.3906,4.3906 0 0 1 2.2351,1.7458 7.8818,7.8818 0 0 1 1.1832,4.2932 c 0.0225,0.8185 0.0209,1.6385 10e-4,2.4572 -0.0579,2.4274 -0.13,4.8544 -0.1964,7.2815 -0.002,0.0616 -0.001,0.1232 -0.002,0.1848 -0.0215,1.2405 -0.04,2.4811 -0.0652,3.7216 q -0.0453,2.1983 -0.1017,4.3961 -0.0378,1.4128 -0.1067,2.8247 c -0.004,0.0838 -0.1209,0.1811 -0.2083,0.235 -0.06,0.0371 -0.16,0.0116 -0.242,0.0117 q -3.2492,0 -6.498198,0 c -0.42,0 -0.4226,-0.0013 -0.4166,-0.4314 0.0227,-1.6206 0.0394,-3.2414 0.0732,-4.8618 0.0461,-2.2038 0.1071,-4.4072 0.1588,-6.6108 0.0169,-0.7179 0.02,-1.4361 0.0385,-2.154 0.0176,-0.6953 0.0523,-1.39 0.0679,-2.0856 a 4.5812,4.5812 0 0 0 -0.3041,-1.957 1.743,1.743 0 0 0 -2.2481,-1.1317 2.2232,2.2232 0 0 0 -1.5844,2.0617 25.7406,25.7406 0 0 0 -0.2034,2.8476 c -0.04,1.0866 -0.0255,2.1751 -0.0481,3.2626 q -0.075,3.6123 -0.1633,7.2243 c -0.0133,0.5844 -0.0228,1.1689 -0.04,1.7532 -0.0175,0.6141 -0.0336,1.2284 -0.072,1.8413 -0.0052,0.0831 -0.128,0.17 -0.2127,0.2324 -0.04,0.03 -0.12,0.0093 -0.181,0.0093 -2.1969,0 -4.3938,-0.0036 -6.5906,0.0049 -0.2869,0.0012 -0.3949,-0.0708 -0.3865,-0.3821 0.0409,-1.5173 0.0522,-3.0353 0.0846,-4.5529 0.0466,-2.1727 0.1025,-4.3452 0.1542,-6.5178 q 0.0526,-2.2137 0.1049,-4.4273 0.05,-2.1666 0.0981,-4.3335 c 0.0343,-1.4553 0.0725,-2.9106 0.1068,-4.366 q 0.0521,-2.2141 0.0993,-4.4284 c 0.0153,-0.7179 0.02,-1.4361 0.0376,-2.154 0.0523,-2.2025 0.1031,-4.405 0.165,-6.6073 0.0274,-0.9721 0.08,-1.9436 0.1211,-2.9154 z"
     id="path8" />
  <path
     d="m 118.95855,17.39 c 0.1871,-0.2255 0.3173,-0.3777 0.4425,-0.5339 a 11.2091,11.2091 0 0 1 3.2323,-2.8465 5.65,5.65 0 0 1 4.4786,-0.4732 4.2413,4.2413 0 0 1 1.9672,1.46 7.3534,7.3534 0 0 1 1.1218,2.4683 0.9438,0.9438 0 0 0 0.129,0.22 1.12,1.12 0 0 0 0.2448,-0.1595 c 0.6832,-0.7624 1.3311,-1.5591 2.0479,-2.2882 a 6.289,6.289 0 0 1 2.6461,-1.676 6.0484,6.0484 0 0 1 3.6958,-0.0344 3.9459,3.9459 0 0 1 2.3087,2.0886 8.7777,8.7777 0 0 1 0.8923,3.5512 c 0.0638,1.2692 0.0839,2.5426 0.067,3.8133 -0.0292,2.1931 -0.1026,4.3856 -0.1561,6.5783 q -0.0534,2.1825 -0.1032,4.3649 -0.05,2.1522 -0.0987,4.3045 c -0.0159,0.728 -0.0324,1.4561 -0.0356,2.1842 -8e-4,0.1862 -0.0673,0.2673 -0.2469,0.2669 -0.0718,0 -0.1436,0.0026 -0.2155,0.0026 -2.1864,0 -4.3728,-0.0053 -6.5591,0.0065 -0.3082,0.0016 -0.4059,-0.0794 -0.3974,-0.3977 0.0317,-1.19 0.0242,-2.38 0.0493,-3.57 0.0463,-2.1917 0.1054,-4.3831 0.1588,-6.5746 0.0349,-1.4349 0.073,-2.87 0.1016,-4.3048 0.012,-0.6011 0.0377,-1.2052 -0.005,-1.8034 a 3.5769,3.5769 0 0 0 -0.637,-2.02 1.7789,1.7789 0 0 0 -1.9354,-0.577 2.0668,2.0668 0 0 0 -1.3916,1.4352 7.1442,7.1442 0 0 0 -0.369,2.352 c -0.0154,1.1488 -0.0173,2.2978 -0.0424,3.4463 -0.0481,2.2032 -0.1093,4.4061 -0.1636,6.6092 -0.0355,1.4449 -0.0662,2.89 -0.1043,4.3349 a 7.6793,7.6793 0 0 1 -0.0665,0.8534 c -0.01,0.0748 -0.1032,0.1542 -0.1777,0.1986 -0.0538,0.032 -0.14,0.0108 -0.2119,0.0108 q -3.28,0 -6.5592,0 c -0.4128,0 -0.4332,-0.0314 -0.42,-0.4371 0.0354,-1.1169 0.0706,-2.2338 0.093,-3.351 0.0214,-1.0667 0.0171,-2.134 0.0408,-3.2007 q 0.0741,-3.3335 0.1666,-6.6665 c 0.0215,-0.82 0.08,-1.64 0.0694,-2.4588 a 4.2953,4.2953 0 0 0 -0.5711,-2.3231 1.7589,1.7589 0 0 0 -3.11,0.14 4.61,4.61 0 0 0 -0.59,2.2326 c -0.056,1.7738 -0.0476,3.55 -0.0832,5.324 -0.0584,2.9095 -0.13,5.8188 -0.1988,8.7281 -0.0139,0.5833 -0.0332,1.1669 -0.0741,1.7486 -0.006,0.0917 -0.135,0.1814 -0.22,0.2571 -0.0294,0.026 -0.0991,0.0074 -0.15,0.0074 -2.2172,0 -4.4344,-0.0026 -6.6516,0.0039 -0.26,8e-4 -0.3612,-0.0683 -0.35,-0.3518 0.04,-0.9838 0.0553,-1.9685 0.0757,-2.953 q 0.083,-3.9973 0.1627,-7.9947 c 0.0126,-0.6149 0.0279,-1.23 0.0425,-1.8445 q 0.0811,-3.4278 0.163,-6.8554 c 0.0122,-0.5126 0.0276,-1.0251 0.04,-1.5376 0.0223,-0.9425 0.0412,-1.885 0.0656,-2.8275 0.0167,-0.6445 0.0491,-1.2887 0.0558,-1.9332 0.002,-0.2166 0.08,-0.2922 0.288,-0.292 q 3.3873,0.0046 6.7747,0 c 0.2305,0 0.3322,0.0763 0.3211,0.3265 -0.0388,0.88 -0.0613,1.7613 -0.0866,2.6421 a 2.6673,2.6673 0 0 0 0.039,0.3261 z"
     id="path10" />
  <path
     d="m 159.12185,17.344 a 1.3446,1.3446 0 0 0 0.0686,-0.2561 c 0.0111,-0.8923 0.0274,-1.7847 0.02,-2.6769 -0.002,-0.2469 0.0743,-0.3193 0.3144,-0.3186 q 3.3716,0.01 6.7433,0 c 0.2875,-10e-4 0.3662,0.1026 0.3569,0.3822 -0.0353,1.0653 -0.0467,2.1313 -0.07,3.197 q -0.0476,2.1819 -0.1,4.3637 -0.0524,2.1818 -0.1045,4.3652 -0.0493,2.1683 -0.093,4.3365 c -0.0156,0.7585 -0.0234,1.5171 -0.0421,2.2755 q -0.0793,3.2261 -0.1652,6.452 c -0.009,0.328 -0.009,0.6573 -0.045,0.9826 -0.009,0.0833 -0.1283,0.1725 -0.2174,0.2227 -0.0629,0.0354 -0.16,0.0108 -0.2425,0.0108 q -3.2178,0 -6.4355,0 c -0.4674,0 -0.4809,-0.0019 -0.4612,-0.48 0.0368,-0.8892 0.092,-1.7777 0.1365,-2.6666 a 1.445,1.445 0 0 0 -0.0237,-0.2264 l -0.0858,-0.0347 c -0.2337,0.3371 -0.4645,0.6762 -0.7015,1.0109 a 8.3975,8.3975 0 0 1 -2.692,2.69 3.9466,3.9466 0 0 1 -1.8756,0.5151 5.4993,5.4993 0 0 1 -1.9461,-0.2027 5.1228,5.1228 0 0 1 -1.7867,-1.0446 8.823,8.823 0 0 1 -1.9845,-2.8483 16.4075,16.4075 0 0 1 -1.1154,-3.5018 23.8468,23.8468 0 0 1 -0.3476,-2.4632 36.2248,36.2248 0 0 1 -0.068,-5.9615 24.3428,24.3428 0 0 1 0.8129,-5.087 14.2841,14.2841 0 0 1 1.7051,-3.9556 7.1313,7.1313 0 0 1 2.2937,-2.3954 5.0156,5.0156 0 0 1 2.586,-0.75 4.6472,4.6472 0 0 1 2.8465,0.7883 7.2871,7.2871 0 0 1 1.7541,1.8768 c 0.2364,0.3458 0.4507,0.7066 0.6815,1.0563 0.0709,0.1063 0.163,0.1985 0.2838,0.3438 z m -0.0793,9.4388 -0.04,-0.0071 c -0.0281,-0.5929 -0.03,-1.1885 -0.09,-1.7782 a 7.6775,7.6775 0 0 0 -0.7205,-2.8354 2.0877,2.0877 0 0 0 -3.422,-0.5363 5.2217,5.2217 0 0 0 -1.2082,2.93 20.35,20.35 0 0 0 -0.2061,2.1362 15.6476,15.6476 0 0 0 0.2319,4.3453 4.57,4.57 0 0 0 0.8125,1.9338 2.0434,2.0434 0 0 0 3.437,-0.1759 6.501,6.501 0 0 0 0.9038,-2.7148 c 0.145,-1.0935 0.2047,-2.198 0.3016,-3.2976 z"
     id="path12" />
  <path
     d="m 53.892452,37.2773 c -0.23,0.3313 -0.4577,0.6638 -0.6893,0.9939 a 8.4014,8.4014 0 0 1 -2.6867,2.6945 3.8936,3.8936 0 0 1 -1.9041,0.5211 5.9532,5.9532 0 0 1 -1.7667,-0.16 5.0237,5.0237 0 0 1 -2.0508,-1.1816 8.8648,8.8648 0 0 1 -1.8895,-2.7674 14.1551,14.1551 0 0 1 -1.1059,-3.5036 35.7946,35.7946 0 0 1 -0.4448,-3.9651 29.96,29.96 0 0 1 -0.0029,-3.4443 34.1078,34.1078 0 0 1 0.375,-3.8149 23.0793,23.0793 0 0 1 0.8616,-3.4828 10.5082,10.5082 0 0 1 2.5778,-4.338 5.2865,5.2865 0 0 1 3.5966,-1.5535 4.9872,4.9872 0 0 1 4.4309,2.4044 c 0.31,0.4311 0.5815,0.89 0.8755,1.3333 0.0662,0.1 0.1532,0.1855 0.2953,0.3547 0.0219,-0.19 0.0422,-0.2889 0.0435,-0.3882 0.0111,-0.8821 0.0239,-1.7642 0.0241,-2.6463 0,-0.2314 0.1323,-0.2385 0.3,-0.2382 q 1.5087,0.0029 3.0175,8e-4 c 1.2419,0 2.4839,0.005 3.7258,-0.0033 0.2693,-0.0018 0.3821,0.068 0.3715,0.3671 -0.0379,1.0755 -0.0468,2.1519 -0.07,3.2278 q -0.0464,2.1357 -0.0982,4.2712 -0.0523,2.229 -0.1063,4.4579 c -0.0313,1.3223 -0.0644,2.6446 -0.0919,3.967 -0.018,0.8712 -0.0212,1.7428 -0.042,2.614 q -0.0781,3.2722 -0.1667,6.5442 c -0.0077,0.2972 -0.03,0.5942 -0.0311,0.8913 -6e-4,0.1746 -0.0831,0.2407 -0.2422,0.2439 -0.0718,0.0014 -0.1437,0.0032 -0.2155,0.0032 q -3.2331,0 -6.4662,0 c -0.4484,0 -0.4627,-0.0024 -0.4447,-0.4339 0.0378,-0.91 0.0932,-1.8183 0.1375,-2.7276 a 1.0357,1.0357 0 0 0 -0.0356,-0.2181 z m 0.3465,-10.1954 c -0.0425,-0.8948 -0.0429,-1.5009 -0.1064,-2.1 a 7.66,7.66 0 0 0 -0.7133,-2.806 2.0921,2.0921 0 0 0 -3.0667,-0.8565 3.6494,3.6494 0 0 0 -1.34,2.1733 13.0251,13.0251 0 0 0 -0.4683,3.5207 14.3432,14.3432 0 0 0 0.4342,4.63 3.5868,3.5868 0 0 0 0.93,1.63 2.04,2.04 0 0 0 3.1307,-0.4375 6.6023,6.6023 0 0 0 0.9221,-2.7406 c 0.1443,-1.094 0.2054,-2.1984 0.2777,-3.0134 z"
     id="path14" />
  <path
     d="m 180.32215,27.9739 c 0.0513,-0.1611 0.1159,-0.3193 0.1516,-0.4838 0.17,-0.7806 0.32,-1.5655 0.499,-2.3439 0.156,-0.6779 0.3351,-1.3508 0.5158,-2.0226 0.1594,-0.5925 0.3331,-1.1811 0.5043,-1.77 0.174,-0.599 0.3539,-1.1962 0.5289,-1.7948 q 0.2236,-0.7656 0.442,-1.5327 0.3625,-1.2686 0.723,-2.5378 c 0.101,-0.3544 0.2255,-0.7042 0.2962,-1.0645 a 0.3564,0.3564 0 0 1 0.4243,-0.3294 c 0.4514,0.0079 0.9031,0.0021 1.3547,0.002 q 2.6635,0 5.3269,0 c 0.39,0 0.4105,0.0541 0.2947,0.4346 -0.2646,0.87 -0.5077,1.7467 -0.7626,2.62 -0.2292,0.7851 -0.4658,1.568 -0.6928,2.3537 -0.2414,0.8353 -0.4731,1.6733 -0.7132,2.509 -0.2318,0.8069 -0.4706,1.6118 -0.7032,2.4184 -0.2411,0.8363 -0.4772,1.674 -0.7179,2.51 -0.2885,1.0029 -0.5824,2.0043 -0.8686,3.0079 -0.317,1.1116 -0.6238,2.2262 -0.943,3.3372 -0.2287,0.796 -0.4749,1.587 -0.7056,2.3825 -0.2392,0.8254 -0.4669,1.6542 -0.7037,2.48 -0.2259,0.7876 -0.4587,1.5733 -0.6852,2.3607 -0.2459,0.8547 -0.4846,1.7115 -0.7326,2.5655 -0.2338,0.8052 -0.4805,1.6067 -0.7126,2.4124 -0.2294,0.7963 -0.4449,1.5966 -0.6716,2.3936 -0.2351,0.826 -0.4761,1.65 -0.715,2.4753 -0.1134,0.3917 -0.228,0.783 -0.3456,1.1865 h -7.3634 c 0.0844,-0.3083 0.1605,-0.5966 0.2422,-0.8833 0.3139,-1.102 0.6263,-2.2044 0.9457,-3.3048 0.3082,-1.0616 0.6289,-2.12 0.9359,-3.1815 0.3014,-1.0427 0.5946,-2.0878 0.8869,-3.1331 a 2.3711,2.3711 0 0 0 0.1789,-0.8 8.2185,8.2185 0 0 0 -0.2889,-1.2528 c -0.2307,-0.8919 -0.4666,-1.7825 -0.7011,-2.6734 -0.25,-0.95 -0.5042,-1.9 -0.751,-2.8507 -0.2239,-0.8626 -0.4375,-1.7278 -0.6608,-2.59 -0.2437,-0.9415 -0.497,-1.8805 -0.7394,-2.8224 -0.3011,-1.17 -0.59,-2.3433 -0.8942,-3.5125 -0.2371,-0.9115 -0.4946,-1.8176 -0.7333,-2.7286 -0.2259,-0.8617 -0.4358,-1.7277 -0.6587,-2.59 -0.2382,-0.9219 -0.4857,-1.8415 -0.7248,-2.7633 -0.1827,-0.704 -0.3561,-1.41 -0.5394,-2.1144 -0.0436,-0.1677 0.0288,-0.23 0.1785,-0.2425 0.0612,-0.0052 0.1231,-0.0037 0.1847,-0.0037 2.1656,0 4.3313,0.0046 6.4969,-0.0054 0.2886,-0.0014 0.3975,0.0817 0.4637,0.3777 0.259,1.159 0.56,2.3084 0.8423,3.4624 0.2575,1.0547 0.516,2.1093 0.7631,3.1664 0.3007,1.2865 0.6054,2.5723 0.879,3.8646 0.1973,0.9321 0.3461,1.8745 0.5183,2.812 a 1.7386,1.7386 0 0 0 0.0579,0.1915 z"
     id="path16" />
  <path
     d="m 74.648052,13.292 a 10.0016,10.0016 0 0 1 3.8969,0.7532 23.8983,23.8983 0 0 1 4.4216,2.2421 0.2891,0.2891 0 0 1 0.1275,0.4511 c -0.816,1.5917 -1.621,3.1891 -2.4275,4.7857 -0.0967,0.1915 -0.1814,0.389 -0.2713,0.5839 -0.0888,0.1923 -0.1992,0.2689 -0.4055,0.1248 a 14.5744,14.5744 0 0 0 -2.9787,-1.6244 5.5976,5.5976 0 0 0 -2.4884,-0.4508 1.6372,1.6372 0 0 0 -1.2446,2.459 3.1534,3.1534 0 0 0 1.3469,1.1279 c 1.2667,0.637 2.5872,1.1745 3.82,1.87 a 7.2378,7.2378 0 0 1 3.1234,3.17 7.0552,7.0552 0 0 1 0.66,2.6971 11.4231,11.4231 0 0 1 -0.2223,2.9987 9.0448,9.0448 0 0 1 -2.0856,4.2128 8.3236,8.3236 0 0 1 -1.9864,1.6753 7.897,7.897 0 0 1 -2.5331,0.9647 10.3258,10.3258 0 0 1 -4.18,-0.0781 12.2707,12.2707 0 0 1 -3.4836,-1.3159 c -0.8237,-0.4722 -1.63,-0.974 -2.4467,-1.4589 -0.2046,-0.1215 -0.2051,-0.2745 -0.1187,-0.4709 0.3208,-0.7281 0.6348,-1.4591 0.95,-2.19 q 0.5691,-1.321 1.1355,-2.6433 c 0.1411,-0.3285 0.28,-0.6578 0.4238,-0.9852 0.07,-0.1608 0.15,-0.1727 0.3041,-0.06 a 18.5824,18.5824 0 0 0 3.4777,2.0578 3.9712,3.9712 0 0 0 1.7717,0.4363 2.1112,2.1112 0 0 0 1.857,-1.065 1.443,1.443 0 0 0 -0.5082,-1.9713 c -1.38,-0.7072 -2.7513,-1.4335 -4.0964,-2.2041 a 16.1574,16.1574 0 0 1 -1.7906,-1.28 6.1,6.1 0 0 1 -1.9122,-2.6635 7.454,7.454 0 0 1 -0.4876,-2.4612 11.3425,11.3425 0 0 1 0.2585,-3.24 8.72,8.72 0 0 1 2.8265,-4.6082 7.3825,7.3825 0 0 1 3.0162,-1.5777 22.2907,22.2907 0 0 1 2.2381,-0.3433 z"
     id="path18" />
  <path
     class="cls-1"
     d="m 14.055452,22.095 c -0.3592,-0.1562 -0.6961,-0.3147 -1.0419,-0.451 a 3.5551,3.5551 0 0 0 -3.0899995,0.0567 4.1107,4.1107 0 0 0 -1.6458,1.6981 8.3594,8.3594 0 0 0 -0.8993,3.3181 10.6832,10.6832 0 0 0 0.0956,2.6615 5.1121,5.1121 0 0 0 1.6214,3.32 2.9982,2.9982 0 0 0 2.8717995,0.6388 14.6945,14.6945 0 0 0 1.5487,-0.5638 c 0.196,-0.0784 0.2645,-0.0533 0.2607,0.16 -0.021,1.21 -0.0344,2.42 -0.0585,3.63 -0.0176,0.8816 -0.0361,1.7635 -0.0832,2.6437 a 0.69,0.69 0 0 1 -0.25,0.45 8.8519,8.8519 0 0 1 -3.13,1.5645 7.3431,7.3431 0 0 1 -3.3760995,0.1 7.0584,7.0584 0 0 1 -4.6337,-3.54 11.1056,11.1056 0 0 1 -1.3415,-3.0481 34.3532,34.3532 0 0 1 -0.7072,-3.672 25.65,25.65 0 0 1 -0.0763,-5.6483 19.8494,19.8494 0 0 1 0.7579,-4.2232 13.607,13.607 0 0 1 3.19,-5.7726 6.3847,6.3847 0 0 1 2.3921,-1.6251 10.5361,10.5361 0 0 1 2.1478,-0.4635 5.5194,5.5194 0 0 1 2.2815995,0.2227 9.3887,9.3887 0 0 1 2.8522,1.4544 1.122,1.122 0 0 1 0.5119,1.077 c -0.07,1.945 -0.1035,3.8913 -0.1527,5.8371 a 0.82,0.82 0 0 1 -0.0455,0.175 z"
     id="path20" />
  <path
     d="m 101.44505,50.7765 a 4.7254,4.7254 0 0 0 -0.4162,0.4934 10.8413,10.8413 0 0 0 -0.6311,1.089 1.56,1.56 0 0 0 -0.1453,0.6458 c -0.0142,1.0878 -0.0127,2.1759 -0.002,3.2638 0.003,0.3051 0.069,0.6092 0.08,0.9147 a 2.7584,2.7584 0 0 1 -0.0463,0.6991 0.5248,0.5248 0 0 1 -0.622598,0.4212 0.4745,0.4745 0 0 1 -0.5126,-0.4993 c -0.014,-0.6619 0.0207,-1.3248 0.0372,-1.9873 0.004,-0.1637 0.0225,-0.3271 0.0227,-0.4906 0.002,-1.478 0.008,-2.956 -0.004,-4.4339 -0.003,-0.3872 -0.0854,-0.7734 -0.0972,-1.1611 a 2.6665,2.6665 0 0 1 0.0814,-0.7544 0.6053,0.6053 0 0 1 0.67,-0.3764 0.5075,0.5075 0 0 1 0.444698,0.5145 9.1409,9.1409 0 0 1 -0.0295,0.9189 c -0.007,0.14 -0.0248,0.28 -0.0378,0.42 l 0.0784,0.0524 a 3.2425,3.2425 0 0 0 0.2845,-0.3026 c 0.3317,-0.453 0.6475,-0.9179 0.9855,-1.366 0.1514,-0.2007 0.3815,-0.4079 0.6228,-0.2475 a 0.9889,0.9889 0 0 1 0.3573,0.5979 7.0184,7.0184 0 0 1 0.0453,1.0723 c 0.003,0.0952 0.01,0.19 0.0147,0.2853 l 0.095,0.0388 c 0.1507,-0.2074 0.291,-0.4234 0.4542,-0.62 0.3579,-0.4327 0.7044,-0.8787 1.1,-1.2755 0.3076,-0.3089 0.6328,-0.22 0.792,0.1779 a 1.4877,1.4877 0 0 1 0.09,0.5383 c 0.006,2.33 0.001,4.66 0.008,6.99 a 2.801,2.801 0 0 0 0.0951,0.632 c 0.1374,0.576 -0.2041,1.2494 -0.8152,1.1954 a 0.3955,0.3955 0 0 1 -0.4108,-0.34 4.4539,4.4539 0 0 1 -0.0119,-0.8265 c 0.0138,-0.2525 0.088,-0.503 0.0892,-0.7546 0.009,-1.7345 0.005,-3.4691 0.005,-5.2037 a 0.8525,0.8525 0 0 0 -0.0168,-0.2436 c -0.0646,-0.212 -0.22,-0.2505 -0.3451,-0.0675 q -0.5644,0.8226 -1.0921,1.67 a 0.7324,0.7324 0 0 0 -0.0418,0.36 c -0.002,1.4574 0.005,2.9149 -0.007,4.3723 a 2.5982,2.5982 0 0 1 -0.1317,0.7779 c -0.1127,0.3421 -0.4195,0.3085 -0.7,0.2752 a 0.4414,0.4414 0 0 1 -0.3751,-0.461 3.5147,3.5147 0 0 1 0.06,-0.728 6.0176,6.0176 0 0 0 0.1134,-0.718 c 0.01,-1.7139 0.007,-3.428 0.005,-5.1421 a 3.4233,3.4233 0 0 0 -0.0405,-0.3744 z"
     id="path22" />
  <path
     d="m 107.60905,50.6858 c 0.1361,-0.2788 0.2655,-0.5611 0.41,-0.8355 a 2.0148,2.0148 0 0 1 0.9,-0.9733 0.7918,0.7918 0 0 1 1.16,0.3831 3.9928,3.9928 0 0 1 0.3935,1.7853 15.85,15.85 0 0 1 -0.2479,3.4585 7.43,7.43 0 0 1 -1.1425,3.0154 c -0.3779,0.52 -0.8088,0.9214 -1.54,0.5962 a 1.8964,1.8964 0 0 0 -0.0352,0.2325 c -0.0184,1.3015 -0.0382,2.6029 -0.0476,3.9045 -0.001,0.18 0.0605,0.36 0.0755,0.5419 a 3.81,3.81 0 0 1 0.0318,0.7893 0.6727,0.6727 0 0 1 -0.8135,0.5637 0.4161,0.4161 0 0 1 -0.3914,-0.3716 4.06,4.06 0 0 1 -0.0273,-0.5205 c 0.0262,-1.896 0.0636,-3.7919 0.0824,-5.688 q 0.034,-3.43 0.0407,-6.8607 c 0.001,-0.46 -0.07,-0.92 -0.0634,-1.379 a 0.56,0.56 0 0 1 0.7282,-0.6026 0.7524,0.7524 0 0 1 0.49,0.88 c -0.0316,0.3043 -0.0815,0.6066 -0.1194,0.91 a 0.6083,0.6083 0 0 0 0.0149,0.1406 z m -0.1046,4.2356 c 0,0.277 -0.0156,0.5551 0.005,0.8305 a 2.4333,2.4333 0 0 0 0.1241,0.6254 c 0.116,0.3278 0.4021,0.4024 0.6078,0.1333 a 3.9758,3.9758 0 0 0 0.5738,-0.9994 11.233,11.233 0 0 0 0.618,-3.7414 3.4059,3.4059 0 0 0 -0.16,-1.051 c -0.11,-0.3565 -0.3327,-0.3839 -0.5373,-0.0649 a 7.6922,7.6922 0 0 0 -0.5656,1.1174 6.2355,6.2355 0 0 0 -0.6659,3.1501 z"
     id="path24" />
  <path
     d="m 88.651252,53.2175 a 18.57,18.57 0 0 1 0.6767,-5.1321 7.8646,7.8646 0 0 1 1.1357,-2.7354 1.5337,1.5337 0 0 1 1.522,-0.8237 1.684,1.684 0 0 1 1.3089,1.0426 2.0634,2.0634 0 0 1 0.13,1.5266 c -0.0789,0.2624 -0.2041,0.47 -0.5206,0.4785 -0.3329,0.0088 -0.4371,-0.2137 -0.5,-0.48 a 3.1375,3.1375 0 0 1 -0.0613,-0.3329 0.5783,0.5783 0 0 0 -0.5308,-0.52 0.6751,0.6751 0 0 0 -0.522,0.2277 3.1341,3.1341 0 0 0 -0.5558,0.974 23.5783,23.5783 0 0 0 -0.658,2.6828 19.0878,19.0878 0 0 0 -0.3226,3.0175 7.77,7.77 0 0 0 0.52,3.4046 c 0.2556,0.5538 0.58,0.6551 1.0566,0.274 a 2.259,2.259 0 0 0 0.9094,-1.5754 3.0751,3.0751 0 0 1 0.0874,-0.5456 c 0.07,-0.2448 0.2544,-0.4625 0.4983,-0.4133 a 0.6674,0.6674 0 0 1 0.4544,0.4165 3.7042,3.7042 0 0 1 -0.04,1.3347 4.5459,4.5459 0 0 1 -1.4142,2.2258 1.5179,1.5179 0 0 1 -1.7434,0.3657 2.12,2.12 0 0 1 -0.8091,-1.0508 11.3574,11.3574 0 0 1 -0.6216,-4.3618 z"
     id="path26" />
  <path
     d="m 163.50675,53.178 a 11.377,11.377 0 0 0 0.0785,2.5854 2.2077,2.2077 0 0 1 -0.1038,1.0423 0.4351,0.4351 0 0 1 -0.5792,0.274 0.7354,0.7354 0 0 1 -0.4552,-0.3726 3.7778,3.7778 0 0 1 -0.0829,-1 c -6e-4,-0.2531 0.071,-0.5062 0.0718,-0.7594 0.006,-1.97 -0.002,-3.94 0.005,-5.91 0.005,-1.2921 0.0329,-2.584 0.0384,-3.8761 10e-4,-0.2429 -0.0713,-0.4853 -0.0817,-0.7292 a 5.3183,5.3183 0 0 1 0.0185,-0.85 c 0.0376,-0.3163 0.2782,-0.4344 0.5676,-0.4609 a 0.5047,0.5047 0 0 1 0.5692,0.4123 3.1927,3.1927 0 0 1 0.0455,0.8182 c -0.008,0.2633 -0.0778,0.5254 -0.0795,0.7882 -0.0123,1.8161 -0.0141,3.6322 -0.0181,5.4484 a 0.21,0.21 0 0 0 0.0882,0.1645 c 0.09,-0.1732 0.1928,-0.3411 0.2684,-0.52 q 0.4535,-1.0749 0.8906,-2.1566 a 2.7615,2.7615 0 0 0 0.1515,-0.5253 c 0.0606,-0.3263 0.2456,-0.5559 0.4787,-0.5619 a 0.5635,0.5635 0 0 1 0.522,0.516 1.4363,1.4363 0 0 1 -0.2276,1.2169 5.47,5.47 0 0 0 -0.579,1.2115 c -0.2508,0.5924 -0.4879,1.1907 -0.72,1.7907 a 0.486,0.486 0 0 0 -0.0194,0.3185 c 0.4165,1.0789 0.8433,2.1538 1.2722,3.2279 a 0.7334,0.7334 0 0 0 0.1656,0.2537 0.981,0.981 0 0 1 -0.1858,1.5543 0.3584,0.3584 0 0 1 -0.58,-0.213 c -0.2726,-0.7386 -0.5326,-1.4817 -0.8075,-2.2193 -0.1876,-0.5035 -0.3917,-1.0008 -0.5884,-1.5009 z"
     id="path28" />
  <path
     d="m 130.88625,54.17 a 1.8649,1.8649 0 0 0 0.08,-0.2534 q 0.3216,-1.8939 0.6375,-3.7889 c 0.0727,-0.4343 0.1293,-0.872 0.22,-1.3025 0.05,-0.2385 0.1356,-0.4883 0.4485,-0.5084 a 0.4971,0.4971 0 0 1 0.5792,0.4313 1.8977,1.8977 0 0 1 0.0243,0.7111 c -0.112,0.5166 -0.31,1.0153 -0.4125,1.5332 -0.3113,1.5676 -0.5887,3.1419 -0.8893,4.7116 -0.2332,1.2174 -0.4685,2.4345 -0.7285,3.6463 -0.1218,0.5676 -0.2871,1.1277 -0.4649,1.6808 a 1.1183,1.1183 0 0 1 -0.6843,0.7825 0.897,0.897 0 0 1 -1.0866,-0.5314 8.2768,8.2768 0 0 1 -0.3849,-1.2247 6.0559,6.0559 0 0 1 -0.126,-0.907 0.8463,0.8463 0 0 1 0.0561,-0.33 0.5013,0.5013 0 0 1 0.5807,-0.388 0.5168,0.5168 0 0 1 0.4364,0.5216 4.8285,4.8285 0 0 1 -0.0166,0.5834 c -0.003,0.0714 -0.0374,0.1555 -0.0107,0.2115 0.0783,0.1641 0.18,0.3169 0.2726,0.4741 0.0959,-0.1156 0.2434,-0.2173 0.2791,-0.3492 0.1793,-0.6611 0.33,-1.33 0.4888,-1.9966 a 1.1089,1.1089 0 0 1 0.0273,-0.182 2.7326,2.7326 0 0 0 -0.146,-1.8526 c -0.23,-0.9352 -0.4445,-1.8744 -0.6862,-2.8065 -0.2851,-1.0992 -0.5909,-2.193 -0.89,-3.2885 a 1.0173,1.0173 0 0 1 0.2041,-1.1128 c 0.1169,-0.108 0.3452,-0.2486 0.433,-0.2027 a 0.867,0.867 0 0 1 0.4293,0.47 c 0.1748,0.7041 0.2786,1.4254 0.4312,2.1355 0.2066,0.9616 0.4313,1.9193 0.6556,2.8769 a 1.2016,1.2016 0 0 0 0.1462,0.2741 z"
     id="path30" />
  <path
     d="m 140.53415,56.4538 c -0.2285,0.298 -0.4411,0.61 -0.6887,0.8911 -0.62,0.7041 -1.2039,0.4825 -1.4108,-0.3524 a 10.2442,10.2442 0 0 1 -0.1662,-1.9152 c -0.0167,-0.3156 0.0287,-0.634 0.03,-0.9511 q 0.006,-2.14 0,-4.28 c -0.001,-0.3584 -0.0413,-0.717 -0.0353,-1.0751 a 0.5738,0.5738 0 0 1 0.65,-0.6068 0.5178,0.5178 0 0 1 0.3755,0.2328 2.2921,2.2921 0 0 1 0.1374,0.7675 c 0.005,0.2717 -0.0809,0.5447 -0.0822,0.8173 -0.008,1.7242 -0.0117,3.4485 0.005,5.1725 a 2.2944,2.2944 0 0 0 0.2,0.6355 2.7525,2.7525 0 0 0 0.4535,-0.4174 3.227,3.227 0 0 0 0.6507,-2.0275 c -0.0495,-1.281 -0.01,-2.5653 -0.0155,-3.8482 -0.001,-0.2551 -0.0511,-0.51 -0.0464,-0.7651 0.007,-0.3881 0.1906,-0.5728 0.5309,-0.5777 0.3524,-0.0051 0.5332,0.1531 0.5583,0.5441 0.02,0.3157 -0.008,0.6342 -0.008,0.9515 -0.001,2.0834 -0.004,4.1669 0.003,6.25 0.001,0.2948 0.076,0.5893 0.0789,0.8843 a 0.6057,0.6057 0 0 1 -0.64,0.6676 c -0.3752,0.0141 -0.5281,-0.1293 -0.5264,-0.5058 7e-4,-0.1569 0.0181,-0.3138 0.028,-0.4706 z"
     id="path32" />
  <path
     d="m 118.71295,53.6755 c 0,-1.0365 0.002,-2.0731 -5e-4,-3.11 -0.001,-0.3912 -0.0707,-0.4279 -0.4049,-0.2279 -0.3785,0.2263 -0.571,0.1749 -0.712,-0.23 a 1.4068,1.4068 0 0 1 0.0591,-1.1638 0.3818,0.3818 0 0 1 0.4708,-0.2334 c 0.4,0.0872 0.5924,-0.0881 0.5867,-0.5064 -0.008,-0.6153 -0.025,-1.23 -0.0329,-1.8456 a 0.5621,0.5621 0 0 1 0.4494,-0.5832 c 0.2678,-0.08 0.5455,-0.0648 0.6707,0.2068 a 1.4106,1.4106 0 0 1 0.07,0.6474 c -0.0254,0.4352 -0.0927,0.8678 -0.1264,1.3026 -0.0183,0.237 0.1563,0.2471 0.3136,0.1905 a 4.878,4.878 0 0 0 0.6974,-0.309 c 0.3123,-0.1714 0.5222,-0.13 0.5681,0.2091 a 4.5851,4.5851 0 0 1 -0.0146,1.1777 c -0.0258,0.2026 -0.2028,0.2674 -0.4579,0.28 a 3.626,3.626 0 0 0 -1.0389,0.3183 c -0.0472,0.0177 -0.065,0.1624 -0.0652,0.2484 q -0.005,2.8481 0.002,5.6959 a 0.9793,0.9793 0 0 0 0.1175,0.3115 c 0.095,-0.0662 0.2219,-0.1119 0.28,-0.2019 a 4.7064,4.7064 0 0 0 0.87,-1.977 0.4738,0.4738 0 0 1 0.4736,-0.4765 c 0.2516,-0.0028 0.4389,0.2426 0.4785,0.5483 a 3.0445,3.0445 0 0 1 -0.51,1.8671 14.4826,14.4826 0 0 1 -0.9462,1.4691 3.1084,3.1084 0 0 1 -0.6065,0.6037 0.5815,0.5815 0 0 1 -0.983,-0.2718 3.2141,3.2141 0 0 1 -0.2,-0.9854 c -0.0255,-0.9836 -0.009,-1.9692 -0.009,-2.9545 z"
     id="path34" />
  <path
     d="m 94.034252,55.267 a 13.389,13.389 0 0 1 0.6878,-4.3834 3.9263,3.9263 0 0 1 1.0426,-1.7146 1.8269,1.8269 0 0 1 0.7086,-0.4008 c 0.5756,-0.1429 1.041,0.148 1.2433,0.859 a 12,12 0 0 1 0.4166,2.2252 10.4949,10.4949 0 0 1 -0.0448,2.1141 8.4459,8.4459 0 0 1 -1.3324,3.8509 1.73,1.73 0 0 1 -0.8362,0.69 1,1 0 0 1 -1.3855,-0.579 6.5157,6.5157 0 0 1 -0.5,-2.6614 z m 1.0288,-0.36 c 0.0777,0.5333 0.1334,1.0714 0.2456,1.5974 0.0366,0.1715 0.2192,0.4349 0.338,0.4365 a 0.7707,0.7707 0 0 0 0.51,-0.3151 4.3921,4.3921 0 0 0 0.7591,-1.8251 9.5245,9.5245 0 0 0 0.1815,-2.7234 6.3439,6.3439 0 0 0 -0.3369,-1.5066 c -0.0993,-0.29 -0.3835,-0.2994 -0.5824,-0.0491 a 2.941,2.941 0 0 0 -0.4362,0.7311 11.2292,11.2292 0 0 0 -0.6787,3.654 z"
     id="path36" />
  <path
     d="m 152.66945,54.3218 a 13.41,13.41 0 0 1 0.6942,-4.4618 3.8079,3.8079 0 0 1 1.05,-1.7091 1.8686,1.8686 0 0 1 0.7114,-0.3964 1.0118,1.0118 0 0 1 1.223,0.8513 15.3679,15.3679 0 0 1 0.4265,2.2862 9.3545,9.3545 0 0 1 -0.1819,2.9032 7.2507,7.2507 0 0 1 -1.4121,3.2618 1.7113,1.7113 0 0 1 -0.6456,0.4408 0.9036,0.9036 0 0 1 -1.3167,-0.5147 11.1763,11.1763 0 0 1 -0.4864,-1.7633 5.2694,5.2694 0 0 1 -0.0624,-0.898 z m 1.0276,-0.4148 c 0.0791,0.5322 0.1365,1.0691 0.25,1.5939 0.037,0.1715 0.2183,0.436 0.3353,0.4369 a 0.7724,0.7724 0 0 0 0.5076,-0.3161 4.4152,4.4152 0 0 0 0.7645,-1.853 10.349,10.349 0 0 0 0.1842,-2.69 3.04,3.04 0 0 0 -0.3407,-1.5349 c -0.1623,-0.2514 -0.3847,-0.278 -0.5733,-0.041 a 2.92,2.92 0 0 0 -0.4429,0.7256 11.2061,11.2061 0 0 0 -0.6847,3.6786 z"
     id="path38" />
  <path
     d="m 133.12365,54.5251 a 13.5069,13.5069 0 0 1 0.6909,-4.4544 3.8872,3.8872 0 0 1 1.023,-1.6915 1.9064,1.9064 0 0 1 0.703,-0.4134 c 0.5785,-0.1569 1.0729,0.1483 1.2687,0.8626 a 15.2093,15.2093 0 0 1 0.4209,2.287 9.6007,9.6007 0 0 1 -0.17,2.8117 8.2423,8.2423 0 0 1 -1.2689,3.1683 1.6076,1.6076 0 0 1 -0.904,0.6526 0.93,0.93 0 0 1 -1.2131,-0.555 12.1709,12.1709 0 0 1 -0.4855,-1.7643 5.4046,5.4046 0 0 1 -0.065,-0.9036 z m 1.0333,-0.4377 c 0.0749,0.5342 0.1474,1.0688 0.2257,1.6025 0.0332,0.2262 0.1358,0.4733 0.3711,0.4558 a 0.8393,0.8393 0 0 0 0.5032,-0.3408 4.3391,4.3391 0 0 0 0.7451,-1.7991 9.4974,9.4974 0 0 0 0.1876,-2.723 6.2971,6.2971 0 0 0 -0.3342,-1.509 c -0.1076,-0.3086 -0.3883,-0.3152 -0.6,-0.0458 a 2.9983,2.9983 0 0 0 -0.4294,0.7352 10.9786,10.9786 0 0 0 -0.6687,3.6242 z"
     id="path40" />
  <path
     d="m 157.30065,53.9655 a 13.1335,13.1335 0 0 1 0.7017,-4.3188 3.8191,3.8191 0 0 1 1.0336,-1.6848 1.8808,1.8808 0 0 1 0.7052,-0.4073 c 0.6218,-0.1579 1.0218,0.1617 1.2408,0.8611 a 12.2571,12.2571 0 0 1 0.4258,2.2548 9.3961,9.3961 0 0 1 -0.1836,2.9342 7.1384,7.1384 0 0 1 -1.4373,3.2822 1.6229,1.6229 0 0 1 -0.5994,0.4043 0.901,0.901 0 0 1 -1.3385,-0.5189 10.99,10.99 0 0 1 -0.4821,-1.765 6.9163,6.9163 0 0 1 -0.0662,-1.0418 z m 1.0957,-0.2924 a 1.7125,1.7125 0 0 0 10e-4,0.215 c 0.0653,0.5141 0.1087,1.0327 0.21,1.54 0.0706,0.3514 0.34,0.4307 0.6177,0.203 a 2.6809,2.6809 0 0 0 0.769,-1.3355 9.3593,9.3593 0 0 0 0.3817,-3.399 3.0947,3.0947 0 0 0 -0.3491,-1.5657 0.3129,0.3129 0 0 0 -0.5545,-0.0483 2.8173,2.8173 0 0 0 -0.4522,0.7213 9.9062,9.9062 0 0 0 -0.6239,3.6692 z"
     id="path42" />
  <path
     d="m 122.45545,54.9 a 13.8688,13.8688 0 0 1 0.7049,-4.5011 4.336,4.336 0 0 1 1.16,-1.8881 1.0006,1.0006 0 0 1 1.4487,0.08 3.1905,3.1905 0 0 1 0.6359,2.009 1.9524,1.9524 0 0 1 -0.5654,1.6876 10.4472,10.4472 0 0 1 -1.3312,0.8663 1.093,1.093 0 0 1 -0.3588,0.1677 c -0.5527,0.1015 -0.6751,0.4755 -0.6527,0.9637 0.0194,0.4195 0.0178,0.84 0.0356,1.26 0.0132,0.3124 0.1,0.6165 0.4323,0.7068 0.34,0.0924 0.5915,-0.1451 0.7854,-0.3787 a 2.2614,2.2614 0 0 0 0.54,-1.2824 0.851,0.851 0 0 1 0.2168,-0.4847 0.405,0.405 0 0 1 0.6879,0.106 1.1668,1.1668 0 0 1 0.1377,0.6721 4.1864,4.1864 0 0 1 -1.7319,2.8221 1.2036,1.2036 0 0 1 -1.866,-0.7471 c -0.1567,-0.6729 -0.2431,-1.3623 -0.3607,-2.0444 z m 3.0315,-4.0882 a 1.5771,1.5771 0 0 0 -0.0251,-0.2432 c -0.0739,-0.2865 -0.12,-0.6341 -0.4676,-0.6894 -0.3394,-0.054 -0.54,0.2277 -0.6638,0.4977 -0.1909,0.4145 -0.3408,0.8484 -0.4969,1.2782 a 0.9992,0.9992 0 0 0 -0.0165,0.2866 0.8834,0.8834 0 0 0 0.3165,-0.0077 7.395,7.395 0 0 0 0.8773,-0.4284 c 0.2553,-0.1517 0.4995,-0.3369 0.4761,-0.694 z"
     id="path44" />
  <path
     d="m 113.38925,55.0923 a 13.6547,13.6547 0 0 1 0.7058,-4.5011 4.2573,4.2573 0 0 1 1.0747,-1.8 1.035,1.035 0 0 1 1.7371,0.28 3.0586,3.0586 0 0 1 0.3245,0.8886 3.2458,3.2458 0 0 1 -0.0916,2.022 2.243,2.243 0 0 1 -1.0078,1 c -0.4656,0.2542 -0.9549,0.4649 -1.424,0.7131 a 0.4375,0.4375 0 0 0 -0.2272,0.2819 c -0.02,0.6233 -0.0131,1.2476 -0.006,1.8715 a 0.62,0.62 0 0 0 0.0771,0.2617 c 0.2159,0.4217 0.512,0.5153 0.8549,0.1927 a 4.0539,4.0539 0 0 0 0.674,-0.9276 2.1113,2.1113 0 0 0 0.138,-0.5918 c 0.0247,-0.11 0.02,-0.26 0.09,-0.318 a 1.0854,1.0854 0 0 1 0.5056,-0.2723 c 0.2587,-0.0311 0.3469,0.2112 0.4166,0.4184 a 1.6909,1.6909 0 0 1 -0.1511,1.196 3.8467,3.8467 0 0 1 -1.5316,2.09 1.1783,1.1783 0 0 1 -1.8711,-0.72 18.1466,18.1466 0 0 1 -0.3764,-2.07 z m 3.0922,-4.0543 -0.0617,-0.0445 a 2.1637,2.1637 0 0 0 -0.0286,-0.2437 c -0.0648,-0.2827 -0.1245,-0.6032 -0.4578,-0.6649 -0.3358,-0.0622 -0.5338,0.2141 -0.6543,0.4654 -0.2064,0.43 -0.3571,0.8878 -0.52,1.3377 -0.0274,0.0756 -0.0333,0.2083 0.0106,0.2473 a 0.2823,0.2823 0 0 0 0.2529,0.0119 8.83,8.83 0 0 0 1.1045,-0.5855 c 0.1619,-0.1093 0.2388,-0.3451 0.3544,-0.5237 z"
     id="path46" />
  <path
     d="m 148.29535,56.4858 a 22.2587,22.2587 0 0 0 0.1478,-4.3246 c 0.0286,-1.4776 0.001,-2.9562 0.008,-4.4344 0.003,-0.5739 0.0443,-1.1477 0.0427,-1.7215 a 5.8143,5.8143 0 0 0 -0.0883,-0.9755 1.7072,1.7072 0 0 1 0.1409,-1.108 0.7407,0.7407 0 0 1 0.4947,-0.3393 0.5556,0.5556 0 0 1 0.4543,0.2747 2.489,2.489 0 0 1 0.1592,0.9215 c -0.01,0.5509 -0.1194,1.1 -0.1219,1.651 -0.0136,2.9562 -0.007,5.9126 -0.007,8.8689 0,0.33 0.0565,0.3931 0.3552,0.2791 0.4624,-0.1763 0.9894,-0.17 1.39,-0.5379 0.1611,-0.1482 0.385,-0.09 0.5307,0.1188 a 1.6942,1.6942 0 0 1 -0.0746,1.6862 0.6076,0.6076 0 0 1 -0.343,0.14 c -0.2858,0.0431 -0.5821,0.0324 -0.8616,0.0972 -0.3981,0.0922 -0.78,0.251 -1.1776,0.3487 -0.7863,0.1935 -1.0495,-0.0218 -1.049,-0.9449 z"
     id="path48" />
  <path
     d="m 143.98065,49.3692 a 4.7427,4.7427 0 0 0 0.3337,-0.3571 8.2215,8.2215 0 0 1 0.5908,-0.82 c 0.3816,-0.4007 0.7962,-0.3081 0.9489,0.2274 a 6.5215,6.5215 0 0 1 0.1865,2.44 0.5476,0.5476 0 1 1 -1.06,-0.2017 2.5992,2.5992 0 0 0 0.04,-0.4581 c 0,-0.0575 -0.0488,-0.1507 -0.0931,-0.1628 a 0.2034,0.2034 0 0 0 -0.1834,0.0677 4.6084,4.6084 0 0 0 -0.7667,1.8875 q -0.0228,1.7553 8e-4,3.511 c 0.005,0.3646 0.1062,0.7282 0.1083,1.0926 a 0.681,0.681 0 0 1 -0.8932,0.695 0.6882,0.6882 0 0 1 -0.4356,-0.8368 6.273,6.273 0 0 0 0.1637,-1.9819 c 0.0435,-1.6723 0.0176,-3.3465 0.0113,-5.02 -0.001,-0.2552 -0.05,-0.51 -0.068,-0.7655 a 0.637,0.637 0 0 1 0.5924,-0.7486 0.4842,0.4842 0 0 1 0.58,0.5144 c 0.004,0.2704 -0.0316,0.5419 -0.0564,0.9169 z"
     id="path50" />
  <path
     d="m 111.17945,56.9447 c 0.1943,-3.6086 0.0925,-7.2184 0.1161,-10.827 0.003,-0.48 -0.07,-0.96 -0.0757,-1.441 -0.005,-0.491 0.1456,-0.6826 0.4908,-0.7112 a 0.6519,0.6519 0 0 1 0.7814,0.6349 5.5571,5.5571 0 0 1 -0.0586,1.0626 c -0.0169,0.1911 -0.0851,0.38 -0.0855,0.57 q -0.008,4.9245 -5e-4,9.8489 a 2.2632,2.2632 0 0 0 0.0855,0.5406 0.9627,0.9627 0 0 1 -0.1567,1.0091 0.9194,0.9194 0 0 1 -0.5439,0.2469 c -0.2619,0.0126 -0.4125,-0.2045 -0.4771,-0.4485 a 4.4673,4.4673 0 0 1 -0.0758,-0.4853 z"
     id="path52" />
  <path
     d="m 168.35365,43.4726 c -0.072,0.2355 -0.1492,0.47 -0.2134,0.7072 a 1.1738,1.1738 0 0 0 -0.0336,0.303 c -0.002,2.297 -0.005,4.5939 0.005,6.8908 a 2.26,2.26 0 0 0 0.145,0.6082 1.1827,1.1827 0 0 1 -0.807,1.4653 0.48,0.48 0 0 1 -0.5291,-0.4842 6.66,6.66 0 0 1 0.0431,-1.15 c 0.009,-0.1405 0.0709,-0.2789 0.0712,-0.4184 0.005,-2.2661 0.0122,-4.5324 -0.003,-6.7984 -0.003,-0.4013 -0.1384,-0.8006 -0.1551,-1.2032 a 0.7754,0.7754 0 0 1 1.0005,-0.8582 c 0.1631,0.0386 0.3071,0.2834 0.3964,0.4648 a 1.1319,1.1319 0 0 1 0.0116,0.4555 z"
     id="path54" />
  <path
     d="m 166.83215,55.9428 a 9.9921,9.9921 0 0 1 0.4259,-1.16 0.6584,0.6584 0 0 1 0.4811,-0.2935 c 0.23,-0.0109 0.339,0.22 0.3433,0.4381 0.009,0.4656 0.006,0.9323 -0.0206,1.397 a 0.715,0.715 0 0 1 -0.1791,0.3785 0.4889,0.4889 0 0 1 -0.8591,-0.134 4.0623,4.0623 0 0 1 -0.1395,-0.59 z"
     id="path56" />
</svg>
