<svg width="1031" height="1213" viewBox="0 0 1031 1213" fill="none" xmlns="http://www.w3.org/2000/svg">
<path opacity="0.96" d="M654.91 175.35C656.948 167.527 625.821 121.249 617.998 123.397C617.392 122.405 607.144 124.94 606.704 126.042C598.881 128.19 576.292 190.17 582.077 195.899C581.636 197.001 589.129 204.494 590.231 204.163C595.961 209.838 649.731 194.081 651.77 186.258C652.651 185.928 655.406 176.121 654.91 175.35Z" stroke="white"/>
<path opacity="0.92" d="M672.378 208.901C674.362 201.464 619.544 116.4 612.107 118.439C610.895 116.455 599.546 119.045 598.719 121.193C591.282 123.232 548.805 236.999 554.259 242.453C553.433 244.601 561.587 252.92 563.846 252.259C569.3 257.714 666.594 228.955 668.522 221.518C670.34 220.912 673.37 210.444 672.378 208.901Z" stroke="#F9F9F9"/>
<path opacity="0.88" d="M689.95 242.343C691.824 235.236 613.426 111.442 606.319 113.37C604.501 110.395 592.105 112.985 590.838 116.235C583.786 118.163 521.421 283.717 526.6 288.841C525.333 292.091 534.258 301.182 537.564 300.19C542.797 305.314 683.56 263.664 685.433 256.557C688.132 255.785 691.438 244.712 689.95 242.343Z" stroke="#F4F4F4"/>
<path opacity="0.84" d="M707.578 275.839C709.341 269.118 607.309 106.484 600.642 108.302C598.218 104.335 584.776 106.924 583.068 111.277C576.347 113.095 494.093 330.436 499.051 335.284C497.398 339.637 506.985 349.498 511.447 348.176C516.406 353.079 700.691 298.372 702.454 291.706C705.925 290.604 709.506 278.979 707.578 275.839Z" stroke="#F1F1F1"/>
<path opacity="0.8" d="M725.265 309.225C726.918 302.89 601.251 101.47 594.97 103.178C591.94 98.2197 577.396 100.864 575.302 106.263C568.967 107.971 466.825 377.045 471.452 381.672C469.359 387.127 479.661 397.76 485.226 396.107C489.908 400.735 717.717 333.081 719.37 326.745C723.833 325.423 727.634 313.192 725.265 309.225Z" stroke="#E8E8E8"/>
<path opacity="0.75" d="M742.949 342.667C744.491 336.717 595.245 96.4567 589.295 98.1095C585.659 92.1594 570.067 94.8039 567.588 101.305C561.638 102.903 439.607 423.763 443.96 428.116C441.481 434.617 452.444 446.076 459.165 444.093C463.573 448.445 734.905 367.844 736.448 361.839C741.682 360.241 745.814 347.35 742.949 342.667Z" stroke="#E2E2E2"/>
<path d="M760.634 375.998C762.121 370.378 589.185 91.3882 583.621 92.9308C579.378 85.9891 562.74 88.6335 559.82 96.2364C554.256 97.779 412.282 470.372 416.414 474.449C413.494 482.052 425.229 494.282 432.997 491.968C437.129 496.045 751.929 402.442 753.417 396.878C759.587 395.005 763.995 381.507 760.634 375.998Z" stroke="#DCDCDC" stroke-miterlimit="10"/>
<path opacity="0.67" d="M778.319 409.384C779.696 404.15 583.18 86.3197 577.946 87.7521C573.098 79.8187 555.358 82.5183 552.053 91.1678C546.819 92.6553 385.011 516.98 388.812 520.782C385.507 529.487 397.903 542.488 406.828 539.844C410.684 543.645 769.008 437.096 770.386 431.862C777.437 429.768 782.175 415.665 778.319 409.384Z" stroke="#D6D6D6"/>
<path opacity="0.63" d="M796.004 442.77C797.271 437.922 577.12 81.3062 572.272 82.6284C566.818 73.7034 548.031 76.4029 544.285 86.2094C539.436 87.5317 357.74 563.644 361.266 567.17C357.52 576.921 370.632 590.75 380.659 587.775C384.24 591.301 786.087 471.804 787.354 466.956C795.343 464.532 800.301 449.822 796.004 442.77Z" stroke="#C1C1C1"/>
<path opacity="0.59" d="M813.688 476.157C814.845 471.694 571.114 76.2928 566.651 77.5048C560.591 67.5881 540.758 70.3427 536.571 81.196C532.108 82.4081 330.468 610.308 333.774 613.558C329.587 624.412 343.415 639.011 354.599 635.706C357.905 638.956 803.275 506.513 804.432 501.995C813.247 499.296 818.481 483.98 813.688 476.157Z" stroke="#B6B6B6"/>
<path opacity="0.55" d="M831.37 509.543C832.417 505.411 565.051 71.2242 560.974 72.326C554.308 61.4177 533.373 64.1723 528.8 76.1274C524.723 77.2293 303.195 656.916 306.225 659.891C301.652 671.846 316.142 687.217 328.427 683.526C331.458 686.501 820.351 541.056 821.453 536.979C831.095 534.059 836.659 518.137 831.37 509.543Z" stroke="#ACACAC"/>
<path opacity="0.51" d="M849.059 542.929C850.05 539.183 559.05 66.2108 555.303 67.2025C548.031 55.3024 526.049 58.057 521.036 71.1141C517.289 72.1057 275.872 703.525 278.627 706.28C273.614 719.337 288.874 735.479 302.207 731.457C304.961 734.157 837.379 575.765 838.37 572.018C849.003 568.878 854.843 552.35 849.059 542.929Z" stroke="#A6A6A6"/>
<path opacity="0.47" d="M866.744 576.26C867.625 572.9 552.99 61.0871 549.629 62.0237C541.751 49.132 518.722 51.9417 513.268 66.0455C509.907 66.9821 248.602 750.133 251.081 752.558C245.682 766.661 261.604 783.63 276.093 779.278C278.572 781.702 854.513 610.363 855.394 607.002C866.909 603.642 873.024 586.508 866.744 576.26Z" stroke="#A5A5A5"/>
<path opacity="0.43" d="M884.427 609.647C885.198 606.672 546.928 56.0737 543.953 56.9001C535.469 43.0167 511.338 45.8264 505.553 61.032C502.578 61.8584 221.384 796.797 223.588 798.946C217.748 814.151 234.386 831.891 249.978 827.208C252.181 829.357 871.645 645.016 872.417 642.041C884.757 638.405 891.148 620.665 884.427 609.647Z" stroke="#9C9C9C"/>
<path opacity="0.39" d="M902.112 643.033C902.773 640.444 540.923 51.0051 538.334 51.7213C529.244 36.8463 504.066 39.7111 497.841 55.9635C495.251 56.6797 194.169 843.351 196.042 845.279C189.817 861.586 207.116 880.097 223.864 875.084C225.792 876.957 888.78 679.67 889.441 677.08C902.663 673.169 909.329 654.823 902.112 643.033Z" stroke="#999999"/>
<path opacity="0.35" d="M919.794 676.419C920.4 674.16 534.861 45.9916 532.657 46.5977C522.96 30.7309 496.736 33.5958 490.07 50.95C487.866 51.556 166.84 890.014 168.493 891.667C161.827 909.076 179.842 928.359 197.692 923.015C199.345 924.612 905.801 714.378 906.407 712.119C920.566 707.932 927.507 688.98 919.794 676.419Z" stroke="#999999"/>
<path opacity="0.3" d="M937.483 709.806C937.979 707.932 528.86 40.9232 526.986 41.4741C516.629 24.6157 489.358 27.4805 482.306 45.9917C480.433 46.4876 139.573 936.733 140.951 938.11C133.844 956.566 152.575 976.675 171.527 971.001C172.905 972.378 922.884 749.087 923.38 747.214C938.42 742.696 945.692 723.138 937.483 709.806Z" stroke="#8C8C8C"/>
<path opacity="0.26" d="M955.166 743.192C955.552 741.704 522.797 35.9097 521.31 36.3504C510.401 18.5004 482.029 21.4203 474.536 40.9782C473.048 41.3639 112.3 983.397 113.347 984.443C105.855 1004 125.302 1024.88 145.356 1018.88C146.458 1019.98 939.96 783.74 940.401 782.253C956.323 777.515 963.871 757.295 955.166 743.192Z" stroke="#7C7C7C"/>
<path opacity="0.22" d="M972.853 776.523C973.128 775.421 516.794 30.8411 515.637 31.1166C504.067 12.2748 474.703 15.1947 466.77 35.8546C465.668 36.1851 84.976 1029.89 85.8024 1030.72C77.8691 1051.38 98.0331 1073.03 119.189 1066.7C120.015 1067.52 957.041 818.338 957.371 817.236C974.175 812.278 981.998 791.453 972.853 776.523Z" stroke="#737373"/>
<path opacity="0.18" d="M990.538 809.909C990.759 809.193 510.735 25.7726 510.019 25.993C497.898 6.15956 467.377 9.13457 459.058 30.8412C458.341 31.0615 57.7613 1076.56 58.3123 1077.11C49.9932 1098.82 70.8183 1121.29 93.1309 1114.63C93.6819 1115.18 974.231 853.047 974.451 852.275C992.081 847.042 1000.18 825.611 990.538 809.909Z" stroke="#6B6B6B"/>
<path opacity="0.14" d="M1008.28 843.295C1008.39 842.91 504.727 20.7592 504.396 20.8694C491.615 0.0442555 460.101 3.01927 451.342 25.8277C450.956 25.9379 30.4874 1123.22 30.7629 1123.5C22.0031 1146.31 43.5444 1169.56 66.9589 1162.56C67.2343 1162.83 991.307 887.7 991.417 887.315C1009.98 881.805 1018.36 859.823 1008.28 843.295Z" stroke="#7B7B7B"/>
<path opacity="0.1" d="M1025.96 876.682L498.722 15.7457C485.335 -6.07107 452.775 -3.09606 443.63 20.8142L3.21726 1169.83C-5.92815 1193.74 16.3294 1217.76 40.8457 1210.43L1008.44 922.354C1027.83 916.569 1036.54 893.981 1025.96 876.682Z" stroke="#797979"/>
</svg>
